<?xml version="1.0" encoding="UTF-8" standalone="no"?>
<!-- Created with Inkscape (http://www.inkscape.org/) -->

<svg
   width="1024"
   height="1024"
   viewBox="0 0 270.93333 270.93333"
   version="1.1"
   id="svg5"
   inkscape:version="1.2.1 (9c6d41e410, 2022-07-14)"
   sodipodi:docname="roster-dark.svg"
   xmlns:inkscape="http://www.inkscape.org/namespaces/inkscape"
   xmlns:sodipodi="http://sodipodi.sourceforge.net/DTD/sodipodi-0.dtd"
   xmlns="http://www.w3.org/2000/svg"
   xmlns:svg="http://www.w3.org/2000/svg">
  <sodipodi:namedview
     id="namedview7"
     pagecolor="#505050"
     bordercolor="#ffffff"
     borderopacity="1"
     inkscape:showpageshadow="0"
     inkscape:pageopacity="0"
     inkscape:pagecheckerboard="1"
     inkscape:deskcolor="#505050"
     inkscape:document-units="mm"
     showgrid="false"
     inkscape:zoom="0.75847"
     inkscape:cx="518.8076"
     inkscape:cy="466.72907"
     inkscape:window-width="1920"
     inkscape:window-height="1015"
     inkscape:window-x="0"
     inkscape:window-y="0"
     inkscape:window-maximized="1"
     inkscape:current-layer="layer1" />
  <defs
     id="defs2" />
  <g
     inkscape:label="Ebene 1"
     inkscape:groupmode="layer"
     id="layer1">
    <g
       id="g9935"
       transform="matrix(0.9536,0,0,0.9536,6.2856418,6.2856542)">
      <path
         id="path234"
         style="fill:none;stroke:#000000;stroke-width:25.231;stroke-linecap:round;stroke-linejoin:round;stroke-dasharray:none;paint-order:markers stroke fill"
         d="M 264.86766,135.46664 A 129.40099,129.40097 0 0 1 135.46667,264.86761 129.40099,129.40097 0 0 1 6.0656891,135.46664 129.40099,129.40097 0 0 1 135.46667,6.0656738 129.40099,129.40097 0 0 1 264.86766,135.46664 Z" />
      <path
         style="fill:none;stroke:#000000;stroke-width:25.3916;stroke-linecap:round;stroke-linejoin:miter;stroke-dasharray:none;stroke-opacity:1"
         d="M 135.46667,6.1043 V 33.52638"
         id="path1270" />
      <path
         style="fill:none;stroke:#000000;stroke-width:25.3916;stroke-linecap:round;stroke-linejoin:miter;stroke-dasharray:none;stroke-opacity:1"
         d="m 135.46667,237.40695 v 27.42208"
         id="path1270-3" />
      <path
         style="fill:none;stroke:#000000;stroke-width:25.3916;stroke-linecap:round;stroke-linejoin:miter;stroke-dasharray:none;stroke-opacity:1"
         d="M 33.52638,135.46667 H 6.1043"
         id="path1270-3-6" />
      <path
         style="fill:none;stroke:#000000;stroke-width:25.3916;stroke-linecap:round;stroke-linejoin:miter;stroke-dasharray:none;stroke-opacity:1"
         d="M 264.82903,135.46667 H 237.40695"
         id="path1270-3-6-7" />
      <path
         style="fill:none;stroke:#000000;stroke-width:17.0086;stroke-linecap:round;stroke-linejoin:miter;stroke-dasharray:none;stroke-opacity:1"
         d="M 43.719602,43.719602 56.70829,56.708291"
         id="path1270-35" />
      <path
         style="fill:none;stroke:#000000;stroke-width:17.0086;stroke-linecap:round;stroke-linejoin:miter;stroke-dasharray:none;stroke-opacity:1"
         d="m 214.22504,214.22504 12.98869,12.98869"
         id="path1270-3-62" />
      <path
         style="fill:none;stroke:#000000;stroke-width:17.0086;stroke-linecap:round;stroke-linejoin:miter;stroke-dasharray:none;stroke-opacity:1"
         d="m 56.708295,214.22504 -12.98869,12.98869"
         id="path1270-3-6-9" />
      <path
         style="fill:none;stroke:#000000;stroke-width:17.0087;stroke-linecap:round;stroke-linejoin:miter;stroke-dasharray:none;stroke-opacity:1"
         d="M 227.21373,43.71961 214.22505,56.708285"
         id="path1270-3-6-7-1" />
      <path
         id="path8075"
         style="fill:#000000;fill-opacity:1;fill-rule:nonzero;stroke:none;stroke-width:0.0117244;stroke-dasharray:none"
         d="m 214.5218,76.498037 c 0.58915,-2.000871 -2.33675,-4.699348 -6.10424,-5.244825 -4.30109,-0.621686 -1.56815,-4.90148 -2.04506,-8.596007 -0.56847,-4.385291 -6.24878,2.907788 -8.25574,3.693655 -1.46968,0.575659 -3.75106,-9.759116 -6.66537,-6.364779 -1.29704,1.511036 -2.08337,2.188963 -0.46872,7.355175 0.74216,2.372906 1.03067,3.990522 0.73125,5.508344 -0.0145,0.07409 -0.0285,0.14816 -0.0459,0.221609 -0.0802,0.338701 -0.18708,0.674299 -0.33017,1.01316 -0.0245,0.05666 -0.0551,0.114846 -0.081,0.171809 -0.10661,0.236837 -0.24503,0.480405 -0.38412,0.724361 -0.0133,-9.61e-4 -0.0259,-0.0019 -0.0384,-0.0046 -0.51023,-0.09624 -1.00601,-0.106646 -1.52389,-0.160188 -1.39584,-0.145774 -2.77536,-0.138337 -4.17256,0.02799 -0.54583,0.0648 -1.06358,0.109745 -1.60123,0.222484 -1.83308,0.382184 -3.62161,0.946281 -5.23869,1.889915 -6.93668,4.049612 -11.63592,11.470299 -16.96454,17.276296 -6.89128,7.505114 -14.64993,14.070834 -23.2126,19.594524 -16.81398,10.84515 -35.34132,17.9379 -55.181362,20.71058 -4.297851,0.60169 -9.766066,3.43352 -13.036288,6.22519 -2.28609,1.95124 -3.796207,4.47219 -4.662525,7.15988 -0.100179,0.002 -0.2137,0.0166 -0.310774,0.0165 -0.283746,5e-4 -0.566706,4.4e-4 -0.827796,-0.0238 -0.05991,-0.005 -0.123114,-0.007 -0.182014,-0.0143 -0.366998,-0.0431 -0.713193,-0.11619 -1.048723,-0.21425 -0.07071,-0.0203 -0.13983,-0.0446 -0.209413,-0.0679 -1.468958,-0.4887 -2.733255,-1.53877 -4.430301,-3.35768 -3.69475,-3.95637 -4.673415,-3.60729 -6.628673,-3.22564 -4.390565,0.85628 3.469213,7.94573 2.242271,8.93963 -1.674881,1.35676 -10.821159,2.69186 -7.288099,5.35304 2.975755,2.23929 8.046342,1.97843 6.463568,6.02383 -2.21869,5.6735 1.420116,12.19561 6.170076,4.27562 1.749251,-2.91597 3.569537,-4.36898 5.175693,-5.05995 0.13862,-0.0598 0.268137,-0.0922 0.403418,-0.14071 0.34963,-0.12523 0.689966,-0.22619 1.012158,-0.28711 0.148941,-0.0281 0.296498,-0.0553 0.43848,-0.0723 0.143889,-0.0166 0.269606,-0.0134 0.405799,-0.0197 0.397265,0.65961 0.657979,1.37746 1.174689,1.97886 7.548793,8.78103 17.36347,7.34682 27.497029,5.78274 4.00039,-0.61852 7.984267,-1.36095 11.922957,-2.29615 6.85274,-1.62896 13.57503,-3.76565 20.10445,-6.39997 22.78684,-9.1948 43.41357,-23.49359 60.19222,-41.43789 7.95755,-8.50837 22.25675,-23.455014 13.6975,-36.078648 0.17831,-0.19701 0.36975,-0.39176 0.59197,-0.58305 0.10993,-0.0944 0.20293,-0.1916 0.32431,-0.28343 1.39419,-1.05496 3.55648,-1.919874 6.95577,-2.000439 3.4619,-0.0825 5.08086,-1.031917 5.43436,-2.232438 z" />
    </g>
  </g>
</svg>
